<svg width="60" height="60" viewBox="0 0 60 60" fill="none" xmlns="http://www.w3.org/2000/svg">
<path d="M35.4 26L22.9 17.075C21.15 15.825 18.825 15.825 17.1 17.075L4.6 26C3.275 26.95 2.5 28.45 2.5 30.075V50C2.5 51.375 3.625 52.5 5 52.5H15V37.5H25V52.5H35C36.375 52.5 37.5 51.375 37.5 50V30.075C37.5 28.45 36.725 26.95 35.4 26V26Z" fill="#25FF00"/>
<path d="M35.4 26L22.9 17.075C21.15 15.825 18.825 15.825 17.1 17.075L4.6 26C3.275 26.95 2.5 28.45 2.5 30.075V50C2.5 51.375 3.625 52.5 5 52.5H15V37.5H25V52.5H35C36.375 52.5 37.5 51.375 37.5 50V30.075C37.5 28.45 36.725 26.95 35.4 26Z" fill="#AAAAAA"/>
<path d="M52.575 7.5H29.925C27.2 7.5 25 9.7 25 12.425L25.225 12.65C25.425 12.775 25.625 12.875 25.825 13L38.325 21.925C40.225 23.275 41.575 25.275 42.175 27.5H47.5V32.5H42.5V37.5H47.5V42.5H42.5V52.5H52.575C55.3 52.5 57.5 50.3 57.5 47.575V12.425C57.5 9.7 55.3 7.5 52.575 7.5ZM47.5 22.5H42.5V17.5H47.5V22.5Z" fill="#25FF00"/>
<g clip-path="url(#clip0_63_58)">
<path d="M52.575 7.5H29.925C27.2 7.5 25 9.7 25 12.425L25.225 12.65C25.425 12.775 25.625 12.875 25.825 13L38.325 21.925C40.225 23.275 41.575 25.275 42.175 27.5H47.5V32.5H42.5V37.5H47.5V42.5H42.5V52.5H52.575C55.3 52.5 57.5 50.3 57.5 47.575V12.425C57.5 9.7 55.3 7.5 52.575 7.5ZM47.5 22.5H42.5V17.5H47.5V22.5Z" fill="#25FF00"/>
</g>
<g clip-path="url(#clip1_63_58)">
<path d="M35.4 26L22.9 17.075C21.15 15.825 18.825 15.825 17.1 17.075L4.6 26C3.275 26.95 2.5 28.45 2.5 30.075V50C2.5 51.375 3.625 52.5 5 52.5H15V37.5H25V52.5H35C36.375 52.5 37.5 51.375 37.5 50V30.075C37.5 28.45 36.725 26.95 35.4 26V26Z" fill="#25FF00"/>
<path d="M52.575 7.5H29.925C27.2 7.5 25 9.7 25 12.425L25.225 12.65C25.425 12.775 25.625 12.875 25.825 13L38.325 21.925C40.225 23.275 41.575 25.275 42.175 27.5H47.5V32.5H42.5V37.5H47.5V42.5H42.5V52.5H52.575C55.3 52.5 57.5 50.3 57.5 47.575V12.425C57.5 9.7 55.3 7.5 52.575 7.5ZM47.5 22.5H42.5V17.5H47.5V22.5Z" fill="#25FF00"/>
</g>
<g clip-path="url(#clip2_63_58)">
<path d="M35.4 26L22.9 17.075C21.15 15.825 18.825 15.825 17.1 17.075L4.6 26C3.275 26.95 2.5 28.45 2.5 30.075V50C2.5 51.375 3.625 52.5 5 52.5H15V37.5H25V52.5H35C36.375 52.5 37.5 51.375 37.5 50V30.075C37.5 28.45 36.725 26.95 35.4 26V26Z" fill="#25FF00"/>
<path d="M52.575 7.5H29.925C27.2 7.5 25 9.7 25 12.425L25.225 12.65C25.425 12.775 25.625 12.875 25.825 13L38.325 21.925C40.225 23.275 41.575 25.275 42.175 27.5H47.5V32.5H42.5V37.5H47.5V42.5H42.5V52.5H52.575C55.3 52.5 57.5 50.3 57.5 47.575V12.425C57.5 9.7 55.3 7.5 52.575 7.5ZM47.5 22.5H42.5V17.5H47.5V22.5Z" fill="#25FF00"/>
</g>
<defs>
<clipPath id="clip0_63_58">
<rect width="20.3571" height="60" fill="white" transform="translate(39.6429)"/>
</clipPath>
<clipPath id="clip1_63_58">
<rect width="7.5" height="23.5714" fill="white" transform="translate(32.1429)"/>
</clipPath>
<clipPath id="clip2_63_58">
<rect width="7.5" height="10.7143" fill="white" transform="translate(24.6429 7.5)"/>
</clipPath>
</defs>
</svg>
